<?xml version="1.0" encoding="UTF-8"?>
<svg width="140px" height="50px" viewBox="0 0 140 50" version="1.1" xmlns="http://www.w3.org/2000/svg" xmlns:xlink="http://www.w3.org/1999/xlink">
    <!-- Generator: Sketch 63.1 (92452) - https://sketch.com -->
    <title>Logo</title>
    <desc>Created with Sketch.</desc>
    <g id="Page-1" stroke="none" stroke-width="1" fill="none" fill-rule="evenodd">
        <g id="Home---Desktop-HD" transform="translate(-40.000000, -40.000000)" fill="#FFFFFF">
            <path d="M150.504326,40 C151.072512,40 151.533382,40.4549827 151.533382,41.0165614 L151.533382,41.0165614 L151.533382,56.079739 C153.957558,54.2045602 157.007858,53.0820529 160.320196,53.0820529 C163.632534,53.0820529 166.682176,54.2052102 169.107669,56.079089 L169.107669,56.079089 L169.107669,54.0986143 C169.107669,53.5363856 169.56788,53.0820529 170.136725,53.0820529 L170.136725,53.0820529 L178.970943,53.0820529 C179.53913,53.0820529 180,53.5363856 180,54.0986143 L180,54.0986143 L180,80.26337 C180,80.8242987 179.53913,81.2786314 178.970943,81.2786314 L178.970943,81.2786314 L170.136725,81.2786314 C169.56788,81.2786314 169.107669,80.8242987 169.107669,80.26337 L169.107669,80.26337 L169.107669,78.2815953 C166.682176,80.156774 163.632534,81.2786314 160.320196,81.2786314 C157.007858,81.2786314 153.957558,80.156774 151.533382,78.2809453 L151.533382,78.2809453 L151.533382,80.26337 C151.533382,80.8242987 151.072512,81.2786314 150.504326,81.2786314 L150.504326,81.2786314 L132.835232,81.2786314 C132.267045,81.2786314 131.806833,80.8242987 131.806833,80.26337 L131.806833,80.26337 L131.806833,78.2822453 C129.381341,80.156774 126.331699,81.2786314 123.020019,81.2786314 C119.458153,81.2786314 116.199145,79.9812807 113.695304,77.8448119 C111.190805,79.9819307 107.932455,81.2786314 104.369931,81.2786314 L104.369931,81.2786314 L100.98122,81.2786314 L100.98122,88.9840886 C100.98122,89.5463172 100.52035,90 99.9528218,90 L99.9528218,90 L91.1179456,90 C90.5504172,90 90.0888889,89.5463172 90.0888889,88.9840886 L90.0888889,88.9840886 L90.0888889,67.1806671 C90.0888889,59.4069625 96.4949807,53.0820529 104.369931,53.0820529 C107.931797,53.0820529 111.190805,54.3800536 113.694646,56.5165224 C116.199145,54.3800536 119.458153,53.0820529 123.020019,53.0820529 C126.331699,53.0820529 129.381341,54.2045602 131.806833,56.079089 L131.806833,56.079089 L131.806833,41.0165614 C131.806833,40.4549827 132.267045,40 132.835232,40 L132.835232,40 Z M54.3094968,53.190184 C54.8795279,53.190184 55.3413587,53.6431861 55.3413587,54.203768 L55.3413587,54.203768 L55.3413587,56.17909 C57.7705886,54.3094036 60.8265889,53.190184 64.1464924,53.190184 C67.4657362,53.190184 70.5210767,54.3094036 72.9516261,56.178442 L72.9516261,56.178442 L72.9516261,54.203768 C72.9516261,53.6431861 73.4134569,53.190184 73.9828282,53.190184 L73.9828282,53.190184 L82.8354645,53.190184 C83.4048359,53.190184 83.8666667,53.6431861 83.8666667,54.203768 L83.8666667,54.203768 L83.8666667,80.2918882 C83.8666667,80.8511739 83.4048359,81.3041759 82.8354645,81.3041759 L82.8354645,81.3041759 L73.9828282,81.3041759 C73.4134569,81.3041759 72.9516261,80.8511739 72.9516261,80.2918882 L72.9516261,80.2918882 L72.9516261,78.315918 C70.5210767,80.1856045 67.4657362,81.3041759 64.1464924,81.3041759 C60.7434593,81.3041759 57.6175247,80.1279261 55.1592654,78.1720461 C54.068685,84.8672733 48.149334,90 41.0305424,90 C40.461171,90 40,89.5476461 40,88.9870642 L40,88.9870642 L40,80.2918882 C40,79.7319544 40.461171,79.2789524 41.0305424,79.2789524 C42.9029363,79.2789524 44.4263181,77.7819071 44.4263181,75.9439762 L44.4263181,75.9439762 L44.4263181,54.203768 C44.4263181,53.6431861 44.8881489,53.190184 45.4575203,53.190184 L45.4575203,53.190184 Z M104.369931,55.1138757 C97.6300374,55.1138757 92.1470022,60.52687 92.1470022,67.1806671 L92.1470022,67.1806671 L92.1470022,87.9688272 L98.9231067,87.9688272 L98.9231067,80.26337 C98.9231067,79.7017913 99.384635,79.2474586 99.9528218,79.2474586 L99.9528218,79.2474586 L104.369931,79.2474586 C111.109166,79.2474586 116.591542,73.8344643 116.591542,67.1806671 C116.591542,60.52687 111.109166,55.1138757 104.369931,55.1138757 Z M53.2789544,55.2160557 L46.4887224,55.2160557 L46.4887224,75.9439762 C46.4887224,78.5531122 44.5800418,80.7332249 42.0624043,81.2089094 L42.0624043,81.2089094 L42.0624043,87.9326518 C48.3353858,87.4167868 53.2789544,82.2361028 53.2789544,75.9439762 L53.2789544,75.9439762 L53.2789544,55.2160557 Z M81.8042624,55.2160557 L75.0140304,55.2160557 L75.0140304,58.117472 C77.1569252,60.5762555 78.456649,63.7647675 78.456649,67.247504 C78.456649,70.7315367 77.1569252,73.9187526 75.0140304,76.377536 L75.0140304,76.377536 L75.0140304,79.2789524 L81.8042624,79.2789524 L81.8042624,55.2160557 Z M64.1464924,55.2160557 C60.6913384,55.2160557 57.5700221,56.631444 55.3413587,58.8996944 L55.3413587,58.8996944 L55.3413587,75.5953137 C57.5700221,77.8635641 60.6913384,79.2789524 64.1464924,79.2789524 C70.8997779,79.2789524 76.3942447,73.8818125 76.3942447,67.247504 C76.3942447,60.6131956 70.8997779,55.2160557 64.1464924,55.2160557 Z M177.941887,55.1138757 L171.165124,55.1138757 L171.165124,58.0238151 C173.304219,60.4898214 174.601238,63.6876999 174.601238,67.1806671 C174.601238,70.6749344 173.304219,73.8715129 171.165124,76.3368692 L171.165124,76.3368692 L171.165124,79.2474586 L177.941887,79.2474586 L177.941887,55.1138757 Z M160.320196,55.1138757 C156.872889,55.1138757 153.757409,56.5334217 151.533382,58.8083353 L151.533382,58.8083353 L151.533382,75.552999 C153.757409,77.8279125 156.872889,79.2474586 160.320196,79.2474586 C167.06009,79.2474586 172.543125,73.8344643 172.543125,67.1806671 C172.543125,60.52687 167.06009,55.1138757 160.320196,55.1138757 Z M149.475927,42.0318228 L142.699164,42.0318228 L142.699164,79.2474586 L149.475927,79.2474586 L149.475927,42.0318228 Z M140.641051,42.0318228 L133.864947,42.0318228 L133.864947,58.0231651 C136.004041,60.4898214 137.300403,63.6876999 137.300403,67.1806671 C137.300403,70.6749344 136.004041,73.8721629 133.864947,76.3375192 L133.864947,76.3375192 L133.864947,79.2474586 L140.641051,79.2474586 L140.641051,42.0318228 Z M123.020019,55.1138757 C120.025682,55.1138757 117.28153,56.185035 115.154287,57.9549177 C117.328934,60.4306736 118.649656,63.6552011 118.649656,67.1806671 C118.649656,70.7067831 117.328934,73.9313106 115.154287,76.4064166 C117.282189,78.1775993 120.025682,79.2474586 123.020019,79.2474586 C129.759254,79.2474586 135.242948,73.8344643 135.242948,67.1806671 C135.242948,60.52687 129.759254,55.1138757 123.020019,55.1138757 Z M174.555226,40.9202454 C177.558014,40.9202454 180,43.3284916 180,46.2883436 C180,49.2481956 177.558014,51.6564417 174.555226,51.6564417 C171.552439,51.6564417 169.111111,49.2481956 169.111111,46.2883436 C169.111111,43.3284916 171.552439,40.9202454 174.555226,40.9202454 Z M78.4225513,40.9202454 C81.4246805,40.9202454 83.8666667,43.3284916 83.8666667,46.2883436 C83.8666667,49.2481956 81.4246805,51.6564417 78.4225513,51.6564417 C75.419764,51.6564417 72.9777778,49.2481956 72.9777778,46.2883436 C72.9777778,43.3284916 75.419764,40.9202454 78.4225513,40.9202454 Z M49.7996709,40.9202454 C52.8024582,40.9202454 55.2444444,43.3284916 55.2444444,46.2883436 C55.2444444,49.2481956 52.8024582,51.6564417 49.7996709,51.6564417 C46.7975418,51.6564417 44.3555556,49.2481956 44.3555556,46.2883436 C44.3555556,43.3284916 46.7975418,40.9202454 49.7996709,40.9202454 Z M174.555226,42.948857 C172.687206,42.948857 171.16804,44.447278 171.16804,46.2883436 C171.16804,48.1294091 172.687206,49.6278302 174.555226,49.6278302 C176.423247,49.6278302 177.942413,48.1294091 177.942413,46.2883436 C177.942413,44.447278 176.423247,42.948857 174.555226,42.948857 Z M78.4225513,42.948857 C76.5545306,42.948857 75.0353651,44.447278 75.0353651,46.2883436 C75.0353651,48.1294091 76.5545306,49.6278302 78.4225513,49.6278302 C80.2899138,49.6278302 81.8097376,48.1294091 81.8097376,46.2883436 C81.8097376,44.447278 80.2899138,42.948857 78.4225513,42.948857 Z M49.7996709,42.948857 C47.9323084,42.948857 46.4124846,44.447278 46.4124846,46.2883436 C46.4124846,48.1294091 47.9323084,49.6278302 49.7996709,49.6278302 C51.6676916,49.6278302 53.1868571,48.1294091 53.1868571,46.2883436 C53.1868571,44.447278 51.6676916,42.948857 49.7996709,42.948857 Z" id="Logo"></path>
        </g>
    </g>
</svg>